<svg xmlns="http://www.w3.org/2000/svg" width="1200" height="300" viewBox="0 0 1200 300" role="img" aria-label="Arshia — Senior Full Stack Engineer, Engineering Lead, SaaS and AI">
  <defs>
    <linearGradient id="fade" x1="0" y1="0" x2="1" y2="0">
      <stop offset="0%" stop-color="#3fb950" stop-opacity="0"/>
      <stop offset="20%" stop-color="#3fb950" stop-opacity="1"/>
      <stop offset="80%" stop-color="#58a6ff" stop-opacity="1"/>
      <stop offset="100%" stop-color="#58a6ff" stop-opacity="0"/>
    </linearGradient>
    <filter id="glow" x="-10%" y="-120%" width="120%" height="340%">
      <feGaussianBlur stdDeviation="3" result="b"/>
      <feMerge><feMergeNode in="b"/><feMergeNode in="SourceGraphic"/></feMerge>
    </filter>
  </defs>

  <rect width="1200" height="300" fill="#0d1117"/>
  <rect x="0" y="0" width="1200" height="3" fill="url(#fade)"/>

  <text x="60" y="104" font-family="Segoe UI, Helvetica, Arial, sans-serif"
        font-size="64" font-weight="700" fill="#e6edf3" letter-spacing="-1.5">Arshia</text>
  <text x="62" y="142" font-family="Segoe UI, Helvetica, Arial, sans-serif"
        font-size="21" fill="#7d8590">Senior Full Stack Engineer  ·  Engineering Lead  ·  SaaS &amp; AI</text>

  <g font-family="Consolas, monospace" font-size="14">
    <rect x="60"  y="166" width="190" height="30" rx="8" fill="#161b22" stroke="#30363d"/>
    <text x="76"  y="186" fill="#3fb950">clinical AI safety</text>
    <rect x="262" y="166" width="206" height="30" rx="8" fill="#161b22" stroke="#30363d"/>
    <text x="278" y="186" fill="#58a6ff">HL7 / FHIR interop</text>
    <rect x="480" y="166" width="222" height="30" rx="8" fill="#161b22" stroke="#30363d"/>
    <text x="496" y="186" fill="#d2a8ff">platform engineering</text>
  </g>

  <path d="M 0.0,254.0 L 34.0,254.0 L 46.0,241.0 L 58.0,254.0 L 78.0,254.0 L 86.0,264.0 L 96.0,196.0 L 106.0,274.0 L 118.0,254.0 L 150.0,254.0 L 168.0,228.0 L 186.0,254.0 L 240.0,254.0 L 240.0,254.0 L 274.0,254.0 L 286.0,241.0 L 298.0,254.0 L 318.0,254.0 L 326.0,264.0 L 336.0,196.0 L 346.0,274.0 L 358.0,254.0 L 390.0,254.0 L 408.0,228.0 L 426.0,254.0 L 480.0,254.0 L 480.0,254.0 L 514.0,254.0 L 526.0,241.0 L 538.0,254.0 L 558.0,254.0 L 566.0,264.0 L 576.0,196.0 L 586.0,274.0 L 598.0,254.0 L 630.0,254.0 L 648.0,228.0 L 666.0,254.0 L 720.0,254.0 L 720.0,254.0 L 754.0,254.0 L 766.0,241.0 L 778.0,254.0 L 798.0,254.0 L 806.0,264.0 L 816.0,196.0 L 826.0,274.0 L 838.0,254.0 L 870.0,254.0 L 888.0,228.0 L 906.0,254.0 L 960.0,254.0 L 960.0,254.0 L 994.0,254.0 L 1006.0,241.0 L 1018.0,254.0 L 1038.0,254.0 L 1046.0,264.0 L 1056.0,196.0 L 1066.0,274.0 L 1078.0,254.0 L 1110.0,254.0 L 1128.0,228.0 L 1146.0,254.0 L 1200.0,254.0" fill="none" stroke="url(#fade)" stroke-width="2.4"
        stroke-linecap="round" stroke-linejoin="round" filter="url(#glow)"
        stroke-dasharray="7000" stroke-dashoffset="0">
    <animate attributeName="stroke-dashoffset" values="7000;0" dur="5s"
             begin="0s" repeatCount="indefinite"/>
  </path>
</svg>
